<?xml version="1.0" encoding="UTF-8" standalone="no"?>
<!-- Created with Inkscape (http://www.inkscape.org/) -->

<svg
   width="275.85199mm"
   height="66.145798mm"
   viewBox="0 0 306.50221 73.495331"
   version="1.1"
   id="svg1"
   xml:space="preserve"
   inkscape:version="1.3.2 (091e20e, 2023-11-25)"
   sodipodi:docname="drawing.svg"
   xmlns:inkscape="http://www.inkscape.org/namespaces/inkscape"
   xmlns:sodipodi="http://sodipodi.sourceforge.net/DTD/sodipodi-0.dtd"
   xmlns="http://www.w3.org/2000/svg"
   xmlns:svg="http://www.w3.org/2000/svg"><sodipodi:namedview
     id="namedview1"
     pagecolor="#ffffff"
     bordercolor="#000000"
     borderopacity="0.25"
     inkscape:showpageshadow="true"
     inkscape:pageopacity="0.0"
     inkscape:pagecheckerboard="0"
     inkscape:deskcolor="#d1d1d1"
     inkscape:document-units="mm"
     inkscape:zoom="0.5946522"
     inkscape:cx="584.37521"
     inkscape:cy="309.42457"
     inkscape:window-width="1440"
     inkscape:window-height="847"
     inkscape:window-x="0"
     inkscape:window-y="25"
     inkscape:window-maximized="1"
     inkscape:current-layer="layer1"
     showborder="true" /><defs
     id="defs1" /><g
     inkscape:label="Layer 1"
     inkscape:groupmode="layer"
     id="layer1"
     transform="translate(21.060868,-80.906083)"><g
       id="g1"
       style="fill:#005757;stroke:none;fill-opacity:1"
       transform="matrix(1.0161915,0,0,1.0161915,25.896842,37.533166)"><path
         id="path4"
         style="opacity:1;vector-effect:non-scaling-stroke;fill:#005757;fill-opacity:1;stroke-width:0.0725087;stroke-linecap:round;stroke-linejoin:round;-inkscape-stroke:hairline;stroke:none"
         d="m 14.03119,46.298123 c -0.50432,0.0011 -1.0043,0.01234 -1.49875,0.03315 -7.2898102,0.306545 -15.3999602,3.824435 -20.1193102,9.388879 -4.0403798,4.763895 -5.2176798,10.569391 -5.8945898,16.94635 0.30296,-0.146862 0.64014,-0.232096 1.01725,-0.24132 1.23282,-0.03015 1.41822,1.847154 1.77519,3.20964 6.4772098,-2.360415 16.2428398,-5.107808 26.39173,-4.916708 9.33069,0.175691 23.14686,5.79315 27.17531,7.514559 C 42.58221,71.674515 44.22275,64.858122 34.96835,54.135011 30.11834,48.515274 21.59606,46.281298 14.03119,46.298126 Z m -0.50331,28.396773 c -9.5490102,-0.08873 -17.7566102,2.347125 -23.5130602,4.73402 -0.3432898,1.800923 -2.2621098,1.98905 -4.0032698,2.019485 -0.1033,0.0018 -0.24785,0.270574 -0.40503,0.653423 -0.0765,0.435346 -0.19377,0.861983 -0.32912,1.284759 -0.26078,-0.08956 -0.65191,-0.251215 -1.24724,-0.536026 -3.0539,-1.460998 -1.00591,-3.749486 -1.00591,-3.749486 0,0 -2.51047,1.837737 0.7925,4.206774 0.58528,0.419797 0.97597,0.627452 1.23576,0.723101 -3.33938,8.538654 -17.69333,14.686182 -16.05076,23.389424 0.41011,2.17297 3.20764,4.38716 5.36508,3.90203 12.34115,-2.77509 22.8115098,-6.07119 34.5074698,-7.19423 14.3642202,-1.37925 27.2476702,4.4858 43.2868202,0.60967 2.49146,-0.60209 3.88086,-3.31292 3.53606,-5.852806 -0.82017,-6.041832 -9.53789,-9.950421 -11.33981,-13.900567 -0.0744,-0.162997 -2.37479,-1.874177 -2.37479,-1.874177 0,0 2.05115,1.216519 1.99214,1.055765 -0.11805,-0.321524 -0.23822,-0.793678 -0.33465,-1.11227 -1.21777,-0.547604 -17.64422,-7.855296 -28.30316,-8.311876 -0.60786,-0.02605 -1.211,-0.04148 -1.80903,-0.04702 z m -29.04043,0.870103 -1.0365,2.895956 c 0,0 -0.0165,0.151547 -1.4e-4,0.396529 l -0.27418,0.274173 0.30504,-0.04077 c 0.0324,0.244409 0.0871,0.534062 0.21314,0.894322 0.54232,1.549813 1.28037,1.920483 1.28037,1.920483 0,0 -0.75021,-1.567742 -0.91457,-2.16435 -0.35901,-1.30323 0.42684,-4.176334 0.42684,-4.176334 z m 1.34127,1.554685 c -0.32884,0.273904 -0.37609,0.447275 -0.54877,0.792639 -0.0256,0.05123 -0.0255,0.208438 -0.0609,0.243867 -0.0144,0.01437 -0.0467,-0.01437 -0.061,0 -0.0167,0.01671 -0.0238,0.289764 -0.0731,0.450774 z m 1.43275,1.339711 c -0.14964,-0.0018 -0.262,0.0899 -0.39638,0.123496 -0.13868,0.0347 -0.31321,0.04626 -0.4267,0.121931 -0.15501,0.103336 -0.26984,0.26114 -0.42684,0.365803 -0.0842,0.05614 -0.0666,0.188535 -0.12193,0.243861 -0.0144,0.01437 -0.0465,-0.01437 -0.0609,0 -0.0316,0.0316 -0.0123,0.06113 -6.5e-4,0.08327 l 1.46392,-0.936802 c -0.0103,-0.0012 -0.0205,-0.0012 -0.0305,-0.0012 z m -1.43346,0.938362 -0.0603,0.03867 c 0.076,0 0.0726,-0.01519 0.0603,-0.03867 z m 29.95614,9.937084 c 12.85356,0.0015 33.84566,1.263467 38.68761,9.053818 0.43391,0.69813 0.17235,2.571171 -0.27955,3.257791 -0.7627,1.15883 -3.75176,2.10855 -3.75176,2.10855 0,0 2.41258,-1.60089 2.956,-2.64684 0.38695,-0.74478 0.0647,-2.131494 -0.3226,-2.670361 C 45.8293,88.358821 11.84911,90.013172 5.9478898,90.715343 c -8.62092,1.025781 -17.0658198,3.783912 -24.9965098,7.316156 -2.96751,1.321695 -6.4838,3.326861 -8.80895,5.595481 -0.79884,0.77941 -2.1308,3.23556 -2.1308,3.23556 0,0 0.69117,-2.72035 1.86597,-4.10396 2.08673,-2.45763 5.30082,-4.212653 8.22024,-5.580617 8.02352,-3.759606 16.6913298,-6.466449 25.4842498,-7.560029 0.1985,-0.02462 4.35952,-0.283977 10.2020602,-0.283093 z" /><path
         style="font-size:7.05556px;font-family:'Park Lane NF';-inkscape-font-specification:'Park Lane NF';fill:#005757;stroke-width:1.38253;stroke-linecap:round;stroke-linejoin:round;stroke:none;fill-opacity:1"
         d="m 71.512035,84.620402 -0.663616,-0.811085 c -2.396393,2.101474 -5.56699,3.281242 -8.774461,3.281242 -2.875652,0 -5.788188,-0.958582 -8.073971,-2.728193 V 63.12672 c 2.285783,-1.769653 5.161445,-2.72818 8.073971,-2.72818 3.207471,0 6.378068,1.105985 8.774461,3.281187 l 0.663616,-0.811085 c -2.580728,-2.322646 -5.972534,-3.539305 -9.438077,-3.539305 -3.31807,0 -6.562404,1.179768 -9.143121,3.281228 v 22.231077 c 2.580717,2.101404 5.825051,3.244337 9.143121,3.244337 3.465543,0 6.820486,-1.179769 9.438077,-3.465577 z M 52.26721,84.214908 V 63.237341 c -2.801916,2.617628 -4.571555,6.34123 -4.571555,10.212287 0,4.16604 1.548431,7.889642 4.571555,10.76528 z m 26.913273,3.391863 V 59.882438 h -5.898798 v 0.99542 h 1.695903 v 26.728913 z m 10.470353,0 V 86.537567 H 80.986985 V 59.882438 H 79.991561 V 87.606771 Z M 120.4352,73.744596 c 0,-8.073975 -6.45181,-14.488933 -14.52579,-14.488933 -3.35494,0 -6.562404,1.142932 -9.143133,3.281228 v 22.415413 c 2.580729,2.101418 5.825063,3.244296 9.143133,3.244296 8.03711,0 14.52579,-6.414904 14.52579,-14.452004 z m -1.2535,0 c 0,7.373487 -5.93566,13.235397 -13.27229,13.235397 -2.91252,0 -5.78819,-1.032269 -8.07397,-2.801923 V 63.274233 c 2.28578,-1.769654 5.16145,-2.765073 8.07397,-2.765073 7.3735,0 13.27229,5.861965 13.27229,13.235436 z M 96.102661,84.36242 V 63.126775 c -2.986262,2.765031 -4.682165,6.562416 -4.682165,10.617821 0,4.055422 1.732766,7.815859 4.682165,10.617824 z m 49.918579,0.258131 -0.66362,-0.811125 c -2.39638,2.10146 -5.56697,3.281228 -8.77445,3.281228 -2.87566,0 -5.78818,-0.958583 -8.07397,-2.728179 V 63.126829 c 2.28579,-1.769653 5.16145,-2.728182 8.07397,-2.728182 3.20748,0 6.37807,1.105987 8.77445,3.281175 l 0.66362,-0.811071 c -2.58072,-2.322646 -5.97252,-3.539305 -9.43807,-3.539305 -3.31807,0 -6.5624,1.179768 -9.14313,3.281228 v 22.231063 c 2.58073,2.101459 5.82506,3.244337 9.14313,3.244337 3.46555,0 6.82049,-1.179769 9.43807,-3.465523 z M 126.77644,84.21507 V 63.237449 c -2.80194,2.617614 -4.57157,6.34123 -4.57157,10.212288 0,4.166026 1.54843,7.889641 4.57157,10.765333 z m 26.91324,3.391794 V 59.882547 h -5.89879 v 0.99542 h 1.6959 v 26.728897 z m 10.69156,0 V 59.882547 h -0.99541 v 6.267432 h -7.85277 v -6.267432 h -1.03229 v 27.724317 h 1.03229 V 67.182291 h 7.85277 v 20.424573 z m 7.70528,0 V 59.882547 h -5.93566 v 0.99542 h 1.69591 v 26.728897 z m 10.50724,0 v -1.069148 h -8.7376 V 67.182291 h 6.82048 v -1.032312 h -6.82048 v -5.272012 h 8.7376 v -0.99542 H 172.787 v 27.724317 z m 10.47033,-9.88048 v -1.03231 h -8.7007 v 1.03231 z m 0,-1.732762 v -4.202918 h -8.7007 v 4.202918 z m 7.7053,11.613242 V 59.882547 h -5.93564 v 0.99542 h 1.73275 V 87.606864 Z M 217.9865,73.744705 c 0,-7.631563 -6.2675,-13.862158 -13.89902,-13.862158 h -2.65447 v 27.724317 h 2.65447 c 7.59469,0 13.89902,-6.230596 13.89902,-13.862159 z m -1.06915,0 c 0,7.078517 -5.78823,12.793011 -12.82987,12.793011 h -1.5853 V 60.877967 h 1.5853 c 7.04164,0 12.82987,5.825058 12.82987,12.866738 z m 8.7376,13.862159 V 59.882547 h -5.89879 v 0.99542 h 1.69587 v 26.728897 z m 14.67326,-10.691551 c 0,-5.124609 -3.61301,-9.585564 -8.66383,-10.544093 0.84791,-0.700504 1.32722,-1.769653 1.32722,-2.838802 0,-2.027729 -1.6222,-3.649871 -3.64991,-3.649871 h -3.02311 v 27.724317 h 3.28118 c 5.89879,0 10.72845,-4.755911 10.72845,-10.691551 z m -1.03229,0 c 0,5.345755 -4.38725,9.622403 -9.69616,9.622403 h -2.21203 V 67.182291 h 2.21203 c 5.38269,0 9.69616,4.350389 9.69616,9.733022 z m -7.33663,-13.382895 c 0,1.437848 -1.17976,2.617561 -2.6176,2.617561 h -1.95396 v -5.272012 h 1.95396 c 1.43784,0 2.6176,1.216604 2.6176,2.654451 z"
         id="text9"
         aria-label="cloche-db" /></g></g></svg>
